<?xml version="1.0" encoding="utf-8"?>
<!-- Generator: Adobe Illustrator 23.0.2, SVG Export Plug-In . SVG Version: 6.00 Build 0)  -->
<svg version="1.1" xmlns="http://www.w3.org/2000/svg" xmlns:xlink="http://www.w3.org/1999/xlink" x="0px" y="0px"
	 viewBox="0 0 8 8" style="enable-background:new 0 0 8 8;" xml:space="preserve">
<style type="text/css">
	.st0{fill:#FFFFFF;}
	.st1{fill:#EF48BC;}
</style>
<g id="outline">
	<g id="outline_1_">
		<g>
			<rect x="4" y="2" class="st0" width="1" height="1"/>
			<polygon points="5,2 4,2 4,3 5,3 5,2 			"/>
		</g>
		<g>
			<rect x="5" y="1" class="st0" width="1" height="1"/>
			<polygon points="6,1 5,1 5,2 6,2 6,1 			"/>
		</g>
		<g>
			<rect x="6" y="5" class="st0" width="1" height="1"/>
			<polygon points="7,5 6,5 6,6 7,6 7,5 			"/>
		</g>
		<g>
			<rect x="5" y="6" class="st0" width="1" height="1"/>
			<polygon points="6,6 5,6 5,7 6,7 6,6 			"/>
		</g>
		<g>
			<rect x="4" y="7" class="st0" width="1" height="1"/>
			<polygon points="5,7 4,7 4,8 5,8 5,7 			"/>
		</g>
		<g>
			<rect x="6" y="0" class="st0" width="1" height="1"/>
			<polygon points="7,0 6,0 6,1 7,1 7,0 			"/>
		</g>
		<g>
			<rect x="7" y="1" class="st0" width="1" height="1"/>
			<polygon points="8,1 7,1 7,2 8,2 8,1 			"/>
		</g>
		<g>
			<rect x="7" y="2" class="st0" width="1" height="1"/>
			<polygon points="8,2 7,2 7,3 8,3 8,2 			"/>
		</g>
		<g>
			<rect x="7" y="3" class="st0" width="1" height="1"/>
			<polygon points="8,3 7,3 7,4 8,4 8,3 			"/>
		</g>
		<g>
			<rect x="7" y="4" class="st0" width="1" height="1"/>
			<polygon points="8,4 7,4 7,5 8,5 8,4 			"/>
		</g>
		<g>
			<rect x="3" y="2" class="st0" width="1" height="1"/>
			<polygon points="4,2 3,2 3,3 4,3 4,2 			"/>
		</g>
		<g>
			<rect x="2" y="1" class="st0" width="1" height="1"/>
			<polygon points="3,1 2,1 2,2 3,2 3,1 			"/>
		</g>
		<g>
			<rect x="1" y="5" class="st0" width="1" height="1"/>
			<polygon points="2,5 1,5 1,6 2,6 2,5 			"/>
		</g>
		<g>
			<rect x="2" y="6" class="st0" width="1" height="1"/>
			<polygon points="3,6 2,6 2,7 3,7 3,6 			"/>
		</g>
		<g>
			<rect x="3" y="7" class="st0" width="1" height="1"/>
			<polygon points="4,7 3,7 3,8 4,8 4,7 			"/>
		</g>
		<g>
			<rect x="1" y="0" class="st0" width="1" height="1"/>
			<polygon points="2,0 1,0 1,1 2,1 2,0 			"/>
		</g>
		<g>
			<rect x="0" y="1" class="st0" width="1" height="1"/>
			<polygon points="1,1 0,1 0,2 1,2 1,1 			"/>
		</g>
		<g>
			<rect x="0" y="2" class="st0" width="1" height="1"/>
			<polygon points="1,2 0,2 0,3 1,3 1,2 			"/>
		</g>
		<g>
			<rect x="0" y="3" class="st0" width="1" height="1"/>
			<polygon points="1,3 0,3 0,4 1,4 1,3 			"/>
		</g>
		<g>
			<rect x="0" y="4" class="st0" width="1" height="1"/>
			<polygon points="1,4 0,4 0,5 1,5 1,4 			"/>
		</g>
	</g>
</g>
<g id="heart">
	<polygon class="st1" points="6,1 6,2 5,2 5,3 4,3 3,3 3,2 2,2 2,1 1,1 1,3 1,5 2,5 2,6 3,6 3,7 4,7 5,7 5,6 6,6 6,5 7,5 7,3 7,1 	
		"/>
</g>
</svg>
